HIERARCHY
ROOT Hips
{
    OFFSET 0.000000 0.000000 0.000000
    CHANNELS 6 Xposition Yposition Zposition Zrotation Xrotation Yrotation
    JOINT Spine
    {
        OFFSET -0.000000 7.246840 0.000000
        CHANNELS 3 Zrotation Xrotation Yrotation
        JOINT Spine1
        {
            OFFSET -0.000000 20.289354 0.000000
            CHANNELS 3 Zrotation Xrotation Yrotation
            JOINT Neck
            {
                OFFSET -0.000000 20.206032 1.836912
                CHANNELS 3 Zrotation Xrotation Yrotation
                JOINT Head
                {
                    OFFSET -0.000000 12.372654 -1.767522
                    CHANNELS 3 Zrotation Xrotation Yrotation
                    End Site
                    {
                        OFFSET -0.000000 22.094025 0.000000
                    }
                }
            }
            JOINT LeftShoulder
            {
                OFFSET 3.465871 17.201674 -0.568930
                CHANNELS 3 Zrotation Xrotation Yrotation
                JOINT LeftArm
                {
                    OFFSET 14.070313 0.000000 0.000000
                    CHANNELS 3 Zrotation Xrotation Yrotation
                    JOINT LeftForeArm
                    {
                        OFFSET 26.549477 0.000000 0.000000
                        CHANNELS 3 Zrotation Xrotation Yrotation
                        JOINT LeftHand
                        {
                            OFFSET 18.880413 0.000000 0.000000
                            CHANNELS 3 Zrotation Xrotation Yrotation
                            End Site
                            {
                                OFFSET 13.256415 0.000000 0.000000
                            }
                        }
                    }
                }
            }
            JOINT RightShoulder
            {
                OFFSET -3.526370 17.201674 -0.568930
                CHANNELS 3 Zrotation Xrotation Yrotation
                JOINT RightArm
                {
                    OFFSET -14.070313 0.000000 0.000000
                    CHANNELS 3 Zrotation Xrotation Yrotation
                    JOINT RightForeArm
                    {
                        OFFSET -26.549477 0.000000 0.000000
                        CHANNELS 3 Zrotation Xrotation Yrotation
                        JOINT RightHand
                        {
                            OFFSET -18.880413 0.000000 0.000000
                            CHANNELS 3 Zrotation Xrotation Yrotation
                            End Site
                            {
                                OFFSET -13.256415 0.000000 0.000000
                            }
                        }
                    }
                }
            }
        }
    }
    JOINT LeftUpLeg
    {
        OFFSET 8.837609 0.000000 0.000000
        CHANNELS 3 Zrotation Xrotation Yrotation
        JOINT LeftLeg
        {
            OFFSET -0.000000 -41.345005 0.000000
            CHANNELS 3 Zrotation Xrotation Yrotation
            JOINT LeftFoot
            {
                OFFSET -0.000000 -35.500874 0.000000
                CHANNELS 3 Zrotation Xrotation Yrotation
                JOINT LeftToeBase
                {
                    OFFSET -0.000000 -5.744446 13.256415
                    CHANNELS 3 Zrotation Xrotation Yrotation
                    End Site
                    {
                        OFFSET -0.000000 0.000000 3.535044
                    }
                }
            }
        }
    }
    JOINT RightUpLeg
    {
        OFFSET -8.837609 0.000000 0.000000
        CHANNELS 3 Zrotation Xrotation Yrotation
        JOINT RightLeg
        {
            OFFSET -0.000000 -41.345005 0.000000
            CHANNELS 3 Zrotation Xrotation Yrotation
            JOINT RightFoot
            {
                OFFSET -0.000000 -35.500874 0.000000
                CHANNELS 3 Zrotation Xrotation Yrotation
                JOINT RightToeBase
                {
                    OFFSET -0.000000 -5.744446 13.256415
                    CHANNELS 3 Zrotation Xrotation Yrotation
                    End Site
                    {
                        OFFSET -0.000000 0.000000 3.535044
                    }
                }
            }
        }
    }
}
MOTION
Frames:    13
Frame Time:    0.010000
4.909033    82.640182    -48.782616    2.589013    0.200036    -2.009505    -4.426322    -12.907218    -0.764304    -1.112926    4.591152    -0.218759    5.829683    31.643185    -3.448303    2.276841    -12.323650    -2.135953    19.515854    0.646487    6.382014    -30.053030    13.229907    -13.485190    5.929981    -9.574706    -12.145478    -32.900703    -10.156403    4.136215    -14.876393    3.760641    11.832428    18.026203    7.170762    11.192429    -2.920599    -8.856049    5.053764    1.339015    -8.624778    8.973276    -3.206175    5.716599    1.434709    -1.680598    -0.566678    -5.425977    4.720625    -2.854732    -1.772983    -1.910531    -4.038217    2.742347    -6.474389    3.288799    0.148575    4.008978    1.858577    5.445014    2.888773    -6.175241    -6.832355    -0.485436    -3.945155    0.910024    
4.903696    82.638939    -48.786114    2.581822    0.205122    -2.044916    -4.433339    -12.901452    -0.767827    -1.104534    4.578770    -0.222393    5.830186    31.625599    -3.450701    2.287318    -12.306938    -2.137142    19.510891    0.668097    6.386776    -30.043072    13.221165    -13.496021    5.927793    -9.492310    -12.126617    -32.884922    -10.081586    4.159691    -14.896202    3.777098    11.857816    18.031961    7.397988    11.179710    -3.029278    -9.003937    5.024525    1.427499    -8.761490    9.008985    -3.194782    5.717312    1.440158    -1.686482    -0.575080    -5.432816    4.708038    -2.860665    -1.739194    -1.895741    -4.120947    2.722579    -6.464383    3.278312    0.173245    4.025891    1.851421    5.400394    2.892626    -6.140313    -6.744833    -0.449631    -3.970909    0.843160    
4.899629    82.638191    -48.789169    2.579532    0.211522    -2.082253    -4.435900    -12.887254    -0.757833    -1.106947    4.553716    -0.212559    5.827151    31.598145    -3.473961    2.318088    -12.280699    -2.156419    19.513098    0.672624    6.372635    -30.037947    13.204725    -13.493635    5.950843    -9.689825    -12.080117    -32.858078    -10.239824    4.029325    -14.891262    3.781175    11.828991    18.023556    7.396897    11.188473    -3.030224    -9.000051    5.021527    1.450711    -8.755802    9.011024    -3.198708    5.716670    1.469144    -1.664608    -0.593540    -5.443469    4.700482    -2.851219    -1.720204    -1.908397    -4.023425    2.739023    -6.460196    3.268902    0.178193    3.998204    1.835842    5.457823    2.876521    -6.175228    -6.830452    -0.496943    -3.902825    0.931134    
4.896201    82.637123    -48.791367    2.577412    0.217308    -2.110655    -4.444973    -12.890306    -0.760878    -1.090651    4.559187    -0.215245    5.832919    31.585930    -3.488045    2.291258    -12.292116    -2.177300    19.504265    0.658343    6.373324    -30.044378    13.183739    -13.484856    5.948766    -9.713105    -12.058203    -32.859688    -10.259793    4.013233    -14.889500    3.769784    11.811290    17.994627    7.355829    11.205429    -3.005432    -8.964191    5.004066    1.476853    -8.719269    9.021732    -3.190838    5.714450    1.461483    -1.678872    -0.591099    -5.402167    4.698540    -2.866621    -1.729798    -1.910596    -4.036237    2.742407    -6.459579    3.261338    0.209240    4.016282    1.826771    5.448360    2.871185    -6.137620    -6.780170    -0.469622    -3.967296    0.880609    
4.892393    82.637253    -48.794750    2.576742    0.225147    -2.145403    -4.448622    -12.890620    -0.761870    -1.090894    4.555417    -0.215591    5.838662    31.568771    -3.511042    2.281410    -12.283516    -2.204024    19.497993    0.675835    6.382565    -30.041586    13.130979    -13.483615    5.929285    -9.748939    -12.080271    -32.820248    -10.297505    4.021935    -14.888878    3.786417    11.808097    17.977093    7.329421    11.225937    -3.007608    -8.943651    4.969523    1.470834    -8.700136    9.009993    -3.194419    5.711042    1.501425    -1.696575    -0.590273    -5.342220    4.727744    -2.878764    -1.788001    -1.884678    -4.107551    2.706460    -6.456648    3.245561    0.204382    3.994659    1.825795    5.476495    2.887376    -6.146923    -6.788771    -0.468113    -3.977189    0.877882    
4.890574    82.636749    -48.796089    2.577773    0.232808    -2.172623    -4.458584    -12.896826    -0.764374    -1.080502    4.561830    -0.217207    5.831942    31.532661    -3.520830    2.272979    -12.256233    -2.220019    19.492752    0.662213    6.387855    -30.039360    13.138986    -13.469355    5.936329    -9.774413    -12.092178    -32.863796    -10.328927    4.041549    -14.897688    3.780452    11.804383    17.965427    7.393654    11.224466    -3.034524    -8.980441    4.948359    1.456508    -8.737441    9.010947    -3.195835    5.714155    1.469596    -1.677330    -0.622091    -5.351221    4.705684    -2.854517    -1.724735    -1.891150    -4.102883    2.715670    -6.461441    3.234065    0.212476    4.005535    1.817589    5.477635    2.865395    -6.191945    -6.826570    -0.499844    -3.880387    0.936322    
4.885542    82.637070    -48.797119    2.575605    0.236586    -2.206919    -4.478707    -12.904552    -0.768085    -1.045715    4.571066    -0.219647    5.787642    31.528946    -3.522588    2.302638    -12.260192    -2.221392    19.466290    0.661670    6.391737    -30.024366    13.112956    -13.464881    5.927700    -9.764974    -12.094934    -32.899769    -10.329973    4.070232    -14.934879    3.770003    11.821051    17.987642    7.390942    11.206801    -3.051695    -8.978882    4.928261    1.432240    -8.737459    9.019587    -3.196963    5.717391    1.513938    -1.672682    -0.634750    -5.374019    4.681937    -2.862858    -1.726894    -1.907462    -4.086488    2.738797    -6.456194    3.222666    0.225375    4.007874    1.819453    5.484512    2.881610    -6.160575    -6.777060    -0.488938    -3.916098    0.916277    
4.881651    82.637642    -48.797432    2.574480    0.240893    -2.231005    -4.485088    -12.915207    -0.774786    -1.038954    4.585499    -0.225268    5.747920    31.570534    -3.547586    2.353424    -12.338628    -2.236845    19.445313    0.673161    6.408861    -29.996445    13.115379    -13.471227    5.938767    -9.738331    -12.110074    -32.945110    -10.309578    4.092240    -14.956552    3.763631    11.831507    17.993910    7.424530    11.190581    -3.059584    -8.990922    4.925200    1.398151    -8.752116    9.001750    -3.195017    5.723288    1.494424    -1.674761    -0.652790    -5.318670    4.695629    -2.855820    -1.739447    -1.919792    -4.022240    2.755355    -6.451741    3.212070    0.221397    3.997822    1.817964    5.499222    2.876415    -6.176104    -6.788979    -0.497368    -3.878818    0.931668    
4.878101    82.639023    -48.797024    2.574201    0.245942    -2.260826    -4.495481    -12.917952    -0.773123    -1.014899    4.578727    -0.223425    5.694865    31.576395    -3.560205    2.393162    -12.335168    -2.247946    19.411602    0.664798    6.404534    -29.970097    13.128668    -13.464776    5.934908    -9.713317    -12.098361    -32.910671    -10.273444    4.054892    -14.996702    3.790103    11.815285    17.994961    7.504111    11.224080    -3.099792    -9.056327    4.867803    1.400121    -8.816945    9.026984    -3.193170    5.722150    1.524611    -1.685334    -0.656072    -5.283103    4.687686    -2.865583    -1.785436    -1.914385    -4.093596    2.748864    -6.452331    3.202650    0.235253    4.001476    1.814729    5.501373    2.933605    -6.108368    -6.709860    -0.460929    -3.963883    0.864274    
4.872452    82.639603    -48.796112    2.572484    0.247545    -2.287694    -4.494883    -12.925636    -0.775759    -1.041863    4.585564    -0.224535    5.744453    31.577335    -3.554105    2.352567    -12.343699    -2.243863    19.441982    0.681944    6.413229    -29.972195    13.147044    -13.473151    5.934099    -9.721582    -12.088537    -32.840588    -10.268705    4.017352    -14.976319    3.809495    11.817114    17.984070    7.460732    11.214919    -3.095878    -9.055003    4.879054    1.412984    -8.814555    9.019661    -3.183578    5.729176    1.512912    -1.696111    -0.668709    -5.277821    4.693538    -2.857121    -1.744315    -1.897952    -4.101837    2.725416    -6.450154    3.195472    0.253579    4.005733    1.814477    5.478808    2.917712    -6.112911    -6.684237    -0.479451    -3.926654    0.898611    
4.869243    82.640465    -48.793678    2.566898    0.249453    -2.316278    -4.493276    -12.925195    -0.772419    -1.030169    4.570796    -0.222309    5.727016    31.612658    -3.556646    2.339151    -12.378304    -2.249681    19.423878    0.671051    6.407089    -29.960194    13.180417    -13.463195    5.928908    -9.743325    -12.073958    -32.750748    -10.275578    3.973237    -15.002893    3.801377    11.804587    18.001589    7.439037    11.212651    -3.095956    -9.078509    4.872118    1.554770    -8.827208    9.020224    -3.178251    5.736461    1.490881    -1.684725    -0.682023    -5.284657    4.673437    -2.856195    -1.704184    -1.914782    -4.092276    2.749410    -6.447050    3.191409    0.269178    4.012965    1.807667    5.469413    2.920795    -6.102094    -6.686147    -0.475020    -3.922385    0.890261    
4.864179    82.640495    -48.791103    2.564141    0.251805    -2.344813    -4.499375    -12.930383    -0.772758    -1.020720    4.567101    -0.221876    5.696748    31.625605    -3.556514    2.356332    -12.376657    -2.249172    19.413055    0.680782    6.423846    -29.955496    13.161479    -13.479278    5.917145    -9.798400    -12.083145    -32.608616    -10.329866    3.986471    -15.015182    3.806972    11.793653    17.994091    7.416739    11.220548    -3.081845    -9.079442    4.855668    1.577853    -8.827097    9.041239    -3.176097    5.740299    1.497368    -1.694739    -0.679164    -5.218516    4.706804    -2.862227    -1.735192    -1.896563    -4.093424    2.723273    -6.441410    3.186134    0.294103    4.022285    1.802743    5.439649    2.922469    -6.101448    -6.649145    -0.486471    -3.911217    0.911603    
4.858746    82.640663    -48.788200    2.561057    0.251125    -2.368767    -4.512762    -12.930526    -0.777249    -0.993997    4.553038    -0.225998    5.678534    31.640722    -3.538416    2.321214    -12.374118    -2.240956    19.393368    0.687829    6.423610    -29.948395    13.177308    -13.477829    5.927457    -9.796107    -12.068329    -32.601871    -10.322927    3.972306    -15.041278    3.806348    11.807473    17.993696    7.396235    11.197556    -3.064842    -9.079789    4.850698    1.607575    -8.825921    9.043294    -3.171511    5.746817    1.487318    -1.694699    -0.688396    -5.195166    4.702168    -2.863839    -1.733978    -1.914193    -4.085144    2.748436    -6.436143    3.185954    0.291798    4.004100    1.799505    5.494619    2.911333    -6.136815    -6.731519    -0.520015    -3.896550    0.974291    
